<svg xmlns="http://www.w3.org/2000/svg" xmlns:xlink="http://www.w3.org/1999/xlink" id="Layer_1" x="0" y="0" version="1.1" viewBox="0 0 446 92" xml:space="preserve" style="enable-background:new 0 0 446 92"><style type="text/css">.st0{fill:#393939}.st1{fill:#3a3a3a}.st2{fill:#3e3e3e}.st3{fill:#3b3b3b}.st4{fill:#404040}.st5{fill:#3d3d3d}</style><g><path d="M146.7,3c10.9,3.5,20.4,9.8,30.6,14.8c2.1,1,4.2,1.9,6.3,2.8c3,1.2,3.1,1.2,4.1-1.9c0.2-0.6,0.4-1.1,0.6-1.8 c2.8,0.6,3.5,2.9,4.4,5.2c3-0.4,5.4-1.6,7.2-3.9c2.5-3.2-0.8-5-2.3-7.3c2.3-0.6,3.7,0.2,4.8,1.9c2.7,4,1.9,9.6-2.1,12.3 c-2.1,1.4-4.7,2.3-7.2,2.9c-1.9,0.5-3.1,1.2-4.1,2.9c-2.3,3.9-4.8,7.6-7.3,11.4c-0.4,0.6-0.7,1.2-0.7,2.2c0.6-0.5,1.2-1,1.8-1.5 c3.1-2.5,6.1-5.2,9.3-7.6c1.9-1.4,3.3-0.9,4.2,1.3c0.8,2.2,0.9,4.2-0.5,6.3c-2.4,3.7-4.7,7.5-6.9,11.3c-0.8,1.3-1.1,2.9-1.6,4.3 c0.3,0.2,0.5,0.5,0.8,0.7c1-0.5,2.2-0.8,3-1.6c4.1-4.5,8.3-8.9,12.2-13.7c1.9-2.4,3.2-5.3,4.5-8.1c0.9-1.9,1.9-1.3,3-0.4 c1.9,1.6,2.5,5.1,1,7.8c-1.4,2.6-3,5.1-4.5,7.7c-1,1.7-2,3.4-2.7,5.2c-0.3,0.8,0,1.9,0,2.8c0.9-0.2,2.1-0.2,2.7-0.8 c3.7-3.8,7.5-7.6,10.9-11.7c3.1-3.7,6-7.6,6.8-12.6c3.2,0.9,4.4,4,3.5,9.2c2.6-2.3,4.9-4.5,7.4-6.5c1.3-1,2.5-2.9,4.6-1.5 c1.5,1,2.3,4.6,1.3,6.5c-1.4,2.6-3.1,5.1-4.6,7.6c-1.7,2.8-3.5,5.6-5.2,8.5c-0.2,0.4-0.2,0.9-0.5,2.1c1.5-0.8,2.7-1.1,3.4-1.9 c3.6-3.8,7.4-7.5,10.3-11.8c4.1-5.9,7.6-12.3,11.2-18.5c1.7-2.9,2.9-6.1,4.4-9.3c2.9,0.1,5.3,3.7,4.1,7.1c-0.7,1.9-1.7,3.7-2.7,5.5 c-2.8,4.7-5.7,9.2-8.6,13.8c-0.5,0.8-0.9,1.6-1.4,2.4c4.4,1.3,13.8-6.5,17.4-14.6c0.7,0.9,1.4,1.6,1.7,2.4c1.2,3.2,0.5,6.2-1.8,8.8 c-3.1,3.4-7.1,4.9-11.5,5.5c-0.8,0.1-1.7,0.2-2.7,0.2c0.1,0.4,0,0.8,0.1,1c3.3,4.7,6.4,9.6,10.1,14c1.7,2,4.5,3.3,7,4.4 c2,0.9,4.2,0.9,5.6-1.4c0.3-0.4,0.9-0.7,1.8-0.7c-0.3,0.8-0.4,1.7-0.8,2.3c-3.2,4.6-9.7,5.7-13.9,2c-2.9-2.6-5.2-5.8-7.5-8.9 c-1.5-2-2.5-4.2-3.6-6.4c-1.1-2.1-2.1-4.2-3.6-7.2c-2,4.3-3.7,7.9-5.5,11.5c-0.4,0.8-0.9,1.5-1.4,2.2c-0.9-0.6-2.1-1-2.5-1.9 c-0.6-1.3-0.6-2.9-1-4.7c-1.6,1.5-3.1,3-4.7,4.2c-1.7,1.3-3.5,3.3-5.8,2.2c-2.6-1.2-2.9-4-2.7-6.4c0.1-2,0.9-4,1.8-5.8 c1.5-3.1,3.4-6,5.3-9.1c-4.6,2.7-15.5,16.3-17.3,21.7c-2.8-1.4-3-4-3.4-7c-1.3,1.2-2.4,2.3-3.5,3.3c-0.8,0.7-1.5,1.3-2.4,1.9 c-1.7,1.2-3.5,2.3-5.6,1.3c-2.3-1.1-3-3.1-3.1-5.5c0-0.9,0-1.9,0-3.4c-0.9,0.9-1.5,1.6-2.2,2.1c-2.3,2.1-4.5,4.4-7,6.2 c-2.6,1.9-5.1,1.1-6.6-1.8c-1.4-2.7-1.8-5.5-0.3-8.3c1.3-2.5,2.8-4.9,4.2-7.3c0.4-0.7,0.8-1.4,1.4-2.5 c-6.2,4.1-15.2,14.7-17.6,20.6c-3.1-0.3-5-2.8-4-5.8c0.5-1.7,1.3-3.3,2.2-4.8c3.9-6.5,7.9-12.9,11.8-19.4c0.7-1.2,1.5-2.4,2.3-3.8 c-2.5-0.9-4.8-1.7-7.5-2.7c-7.7,14.5-16.4,28.4-21.2,44.3c-2.6-0.9-4.9-5.7-4.1-9.5c0.6-3,1.6-6.1,3-8.9 c4.4-8.7,9.1-17.3,13.7-25.9c0.6-1,1.2-2.1,1.7-3c-0.1-0.3-0.1-0.5-0.2-0.6c-6.4-5.2-13.1-9.7-20.9-12.4c-3.9-1.3-7.8-1.4-11.7,0.2 c-5.4,2.4-8.3,8.4-6.9,14.1c1.2,5.2,5.9,8.6,11.4,8.3c3.1-0.2,5.8-1.6,7-4.3c0.8-1.7,0.6-4.1,0.2-6c-0.1-0.6-2.5-0.7-4.2-1.2 c-0.3-1.1,0.5-2,2-2.4c3.1-0.8,5.7,0.9,6.1,4.4c0.6,4.8-0.7,9-4.8,11.9c-4.2,2.9-8.8,3.2-13.3,0.9c-5-2.6-7.6-7-7.9-12.6 C124.8,13.9,130.6,6,139,3.6c0.4-0.1,0.7-0.4,1.1-0.5C142.3,3,144.5,3,146.7,3z" class="st0"/><path d="M311,32.3c-2.7,0-5.2,0.1-7.6-0.1c-0.5,0-1.4-0.7-1.5-1.3c-0.9-3.5-3.5-5-6.7-5.3c-2.3-0.2-4.7,0.1-7,0.6 c-2.2,0.5-3.6,2.2-3.6,4.7c0,2.4,1.6,3.6,3.8,4.2c3.9,1.1,7.9,2,11.8,3c1.2,0.3,2.3,0.6,3.4,0.9c4.7,1.4,8.1,4.1,8.8,9.1 c0.8,5.5-0.9,10.1-5.5,13.4c-6.7,4.9-20.5,4.5-27-0.7c-3.4-2.7-5-6.3-4.8-10.9c2.8,0,5.3-0.1,7.8,0.1c0.5,0,1.2,1,1.4,1.7 c0.8,2.9,2.6,4.8,5.4,5.1c3.2,0.3,6.4,0.2,9.6-0.3c2.4-0.4,4-2.2,4-4.9c0.1-2.7-1.7-3.8-3.8-4.4c-3.8-1.1-7.6-1.9-11.4-2.9 c-1.2-0.3-2.5-0.7-3.7-1c-5-1.5-8.3-4.6-8.8-10c-0.5-5.8,1.5-10.7,6.7-13.2c7.8-3.8,15.8-3.7,23.3,1.3 C309.4,23.9,311,27.5,311,32.3z" class="st0"/><path d="M314.8,19.2c3,0,5.8,0,8.7,0c0,5,0,9.8,0,14.2c2.8-1.2,5.5-2.9,8.3-3.4c7.6-1.3,13,3.4,13.1,11.1 c0.1,7.5,0,14.9,0,22.6c-3,0-5.8,0-9,0c0-1.1,0-2.1,0-3c0-5.9,0-11.7,0-17.6c-0.1-3.6-1.5-5.5-4.1-5.9c-3.6-0.6-6.5,0.9-7.5,4.2 c-0.5,1.5-0.7,3.2-0.7,4.8c-0.1,5.8,0,11.5,0,17.7c-2.7,0-5.2,0.1-7.7-0.1c-0.4,0-1.1-1.5-1.1-2.3c-0.1-7.5-0.1-14.9-0.1-22.4 c0-5.6,0-11.2,0-16.8C314.8,21.3,314.8,20.3,314.8,19.2z" class="st0"/><path d="M364.7,29.6c10.4,0,17.1,6.9,17.1,17.7c0,10.9-6.7,17.8-17.3,17.8c-10.5,0-17-6.8-17.1-17.7 C347.5,36.4,354.1,29.6,364.7,29.6z M356.4,47.2c0.3,1.8,0.4,3.3,0.8,4.8c1.1,3.9,3.6,5.7,7.4,5.7c3.7,0,6.7-1.9,7.3-5.8 c0.5-3.3,0.4-6.8-0.3-10c-0.7-3.3-3.4-4.9-6.9-4.9c-3.5,0-6.1,1.6-7.2,4.9C356.9,43.7,356.8,45.6,356.4,47.2z" class="st0"/><path d="M414.3,30.8c0,1.6,0,2.9,0,4.2c0,8.7,0,17.5,0,26.2c0,1.9-0.4,2.8-2.5,2.7c-1.9-0.2-3.9,0-5.9,0 c-0.1-1.4-0.2-2.5-0.2-3.2c-2.6,1.2-5.1,3.1-7.9,3.7c-7.6,1.6-12.9-2.2-13.4-9.9c-0.5-7.8-0.1-15.7-0.1-23.7c2.8,0,5.6,0,8.7,0 c0,0.9,0.1,1.8,0.1,2.7c0,5.9,0,11.7,0,17.6c0,4.2,1.4,6.1,4.6,6.5c3.7,0.5,6.6-1.6,7.3-5.5c0.4-1.9,0.3-3.9,0.3-5.8 c0-5.1,0-10.2,0-15.4C408.3,30.8,411.1,30.8,414.3,30.8z" class="st0"/><path d="M434.3,57.8c0,2.2,0,4.1,0,6.2c-3,0-6,0.3-8.9-0.1c-3.6-0.5-5.1-2.6-5.2-6.4c-0.1-5.8,0-11.5,0-17.3 c0-0.9,0-1.8,0-2.9c-1.6-0.1-2.9-0.2-4.5-0.3c0-1.9,0-3.8,0-5.9c1.4-0.1,2.7-0.2,4.5-0.3c0-2.4,0.1-4.7,0-7.1c-0.1-1.5,0.5-2,2-2.1 c6.7-0.3,6.8-0.3,6.6,6.1c-0.1,2.5,0.5,3.7,3.2,3.3c0.6-0.1,1.3,0.1,2.2,0.1c0,2,0,3.9,0,6c-1.7,0-3.3,0-5.3,0c0,1.9,0,3.5,0,5.2 c0,3.8,0,7.6,0,11.5c0,3.6,0.2,3.8,3.9,3.9C433.2,57.7,433.6,57.8,434.3,57.8z" class="st0"/><path d="M42.8,66c0.9,0.4,1.6,0.6,1.9,0.8c0,2.5-0.3,4.7,0,6.9c0.8,5.7,4.1,9.6,9.5,11.6c5.6,2,10.8,0.9,15.1-3.2 c4.1-3.9,5.7-8.8,3.9-14.2c-2.1-6.4-7.4-9.1-13.5-10.8c-2.1-0.6-4.3-1.2-6.1-2.4c-3.6-2.3-4.7-7-3-10.9c1.7-3.8,5.6-5.8,10.4-5.1 c4.1,0.6,7,3.7,7.4,8c-1.3,0.5-2.3,0.8-3-1.2c-1-3-3.9-4.5-7.1-4.1c-3.1,0.4-5.1,2.3-5.5,5.2c-0.4,3.2,1.1,5.7,4.4,6.9 c1.3,0.5,2.8,0.7,4.2,1.1c7.2,2.2,13.1,5.9,14.9,13.8c2.1,9-4,18.1-13.2,20.2c-9.2,2.1-18.7-3.7-20.9-12.7 C41.4,72.7,41.3,69.5,42.8,66z" class="st1"/><path d="M117.3,44.7c-5,4.9-10,9.9-15.3,15.1c5.1,2.2,9,1.1,12.6-2.4c0.7,0.5,1.3,0.9,1.9,1.4c-2.2,4-7.6,6-12.7,4.7 c-5.7-1.4-9.7-6.3-9.7-12.2c-0.1-5.8,3.6-10.7,9.2-12.3C108.6,37.5,114.5,39.7,117.3,44.7z M113.1,43.9c-3.8-3.6-9.9-3.5-13.6,0.6 c-3.6,3.8-3.5,9.9,0.1,13.1C104.1,53,108.6,48.4,113.1,43.9z" class="st1"/><path d="M34.4,60.9c0,1.1,0,1.8,0,2.7c-7.6,0-15,0-22.6,0c0-15.6,0-31.1,0-46.7c0.8,0,1.5,0,2.5,0c0.1,1,0.1,2,0.1,3 c0,12.5,0,25,0,37.5c0,3.5,0,3.5,3.7,3.6C23.4,60.9,28.7,60.9,34.4,60.9z" class="st2"/><path d="M139.7,63.5c0-4.6,0-9,0-13.5c0-1.3-0.1-2.8-0.5-4c-1-3.1-4.4-5.1-7.6-4.7c-3.5,0.5-6.2,3.3-6.3,6.9 c-0.1,4.2,0,8.3,0,12.5c0,0.9,0,1.8,0,2.8c-1,0-1.8,0-2.4,0c0-6-0.5-12.1,0.2-18c0.5-4.6,5.5-7.4,10.4-7c4.7,0.3,8.8,4,9.1,8.8 c0.3,5.3,0.1,10.7,0.1,16.1C141.6,63.5,140.8,63.5,139.7,63.5z" class="st3"/><path d="M84.6,63.6c-1.2,0-1.8,0-2.9,0c0-2.7,0-5.3,0-7.9c0-3.8-0.1-7.7,0-11.5c0.1-2.3-0.7-3-2.9-2.8 c-1.5,0.2-3.4,0.3-2.4-2.6c1.6-0.1,3.2-0.2,5.3-0.3c0-1.5,0-3,0-4.5c0-5,0.1-10,0-15c0-1.9,0.6-2.7,2.8-1.9c0,7.1,0,14.2,0,21.5 c1.9,0,3.6,0,5.4,0c0.1,1,0.1,1.7,0.2,2.6c-1.8,0.1-3.5,0.2-5.5,0.3C84.6,48.9,84.6,56.2,84.6,63.6z" class="st0"/><path d="M42.9,63.6c-0.8,0-1.6,0-2.5,0c0-8.2,0-16.4,0-24.7c0.8,0,1.6,0,2.5,0C42.9,47.1,42.9,55.3,42.9,63.6z" class="st4"/><path d="M212,28.2c0.2-3.1,0.5-5.7,3-6.5c1.5-0.5,3.5,0.3,5.1,1c1.7,0.8,1.7,2.3,0.5,3.8c-1.3,1.7-2.6,3.3-3.7,5.1 c-1.2,1.8-2.4,1.5-3.3,0C212.7,30.5,212.3,29,212,28.2z" class="st1"/><path d="M44.7,19.8c-0.3,1.9-1.4,2.9-3.2,2.9c-1.7-0.1-2.9-1.2-2.8-3c0-1.8,1.1-3,3.1-2.9C43.7,16.8,44.6,18,44.7,19.8 z" class="st5"/></g></svg>